<svg xmlns="http://www.w3.org/2000/svg" xmlns:xlink="http://www.w3.org/1999/xlink" width="500" zoomAndPan="magnify" viewBox="0 0 375 374.999991" height="500" preserveAspectRatio="xMidYMid meet" version="1.0"><defs><g/></defs><path fill="#7ed957" d="M 174.59375 10.347656 C 206.976562 14.566406 237.523438 42.085938 268.390625 31.308594 C 286.003906 25.160156 298.707031 7.273438 317.285156 4.890625 C 341.226562 1.816406 360.625 28.554688 358.652344 52.589844 C 356.683594 76.621094 340.261719 96.851562 323.0625 113.773438 C 305.863281 130.699219 286.691406 146.707031 276.417969 168.539062 C 264.996094 192.800781 266.1875 220.777344 267.199219 247.5625 C 268.207031 274.351562 268.4375 302.558594 255.546875 326.039062 C 242.660156 349.523438 211.976562 365.4375 188.261719 352.964844 C 167.074219 341.816406 160.605469 327.417969 134.644531 336.453125 C 120.886719 341.222656 110.0625 351.953125 96.945312 357.960938 C 59.152344 375.253906 21.082031 362.226562 15.992188 317.648438 C 14.019531 300.308594 17.460938 282.878906 21.265625 265.863281 C 34.476562 206.699219 51.996094 148.496094 73.644531 91.851562 C 90.570312 47.542969 117.953125 3.007812 174.59375 10.347656 Z M 174.59375 10.347656 " fill-opacity="1" fill-rule="nonzero"/><path fill="#ffffff" d="M 154.140625 149.476562 C 154.140625 165.664062 140.925781 178.746094 124.574219 178.746094 C 108.226562 178.746094 95.011719 165.664062 95.011719 149.476562 C 95.011719 133.292969 108.226562 120.207031 124.574219 120.207031 C 140.925781 120.207031 154.140625 133.292969 154.140625 149.476562 Z M 206.664062 120.207031 C 190.316406 120.207031 177.097656 133.292969 177.097656 149.476562 C 177.097656 165.664062 190.316406 178.746094 206.664062 178.746094 C 223.015625 178.746094 236.230469 165.664062 236.230469 149.476562 C 236.230469 133.292969 223.015625 120.207031 206.664062 120.207031 Z M 206.664062 120.207031 " fill-opacity="1" fill-rule="nonzero"/><path fill="#000000" d="M 139.011719 141.386719 C 139.011719 152.058594 130.140625 160.839844 119.359375 160.839844 C 108.574219 160.839844 99.707031 152.058594 99.707031 141.386719 C 99.707031 130.710938 108.574219 121.929688 119.359375 121.929688 C 130.140625 121.929688 139.011719 130.539062 139.011719 141.386719 Z M 201.796875 121.929688 C 191.011719 121.929688 182.144531 130.710938 182.144531 141.386719 C 182.144531 152.058594 190.839844 160.839844 201.796875 160.839844 C 212.578125 160.839844 221.449219 152.058594 221.449219 141.386719 C 221.449219 130.710938 212.578125 121.929688 201.796875 121.929688 Z M 243.1875 167.730469 C 226.667969 180.640625 206.839844 189.25 186.144531 192.695312 C 164.925781 196.308594 143.011719 194.070312 122.835938 186.839844 C 111.359375 182.707031 100.402344 176.855469 90.660156 169.621094 C 87.011719 167.039062 83.183594 172.722656 86.660156 175.304688 C 105.097656 189.078125 127.183594 197.6875 150.140625 200.441406 C 172.230469 203.199219 194.839844 199.925781 215.363281 191.660156 C 227.015625 187.011719 237.972656 180.640625 247.710938 172.894531 C 251.363281 170.140625 246.667969 164.972656 243.1875 167.730469 Z M 221.449219 100.578125 C 212.578125 95.929688 202.316406 93.691406 192.402344 94.550781 C 190.492188 94.722656 188.925781 96.101562 188.925781 97.996094 C 188.925781 99.71875 190.492188 101.613281 192.402344 101.441406 C 201.273438 100.75 210.144531 102.472656 217.96875 106.605469 C 221.96875 108.671875 225.449219 102.644531 221.449219 100.578125 Z M 107.53125 106.605469 C 115.359375 102.472656 124.226562 100.75 133.097656 101.441406 C 135.011719 101.613281 136.578125 99.71875 136.578125 97.996094 C 136.578125 96.101562 135.011719 94.722656 133.097656 94.550781 C 123.011719 93.691406 112.921875 95.929688 104.054688 100.578125 C 100.054688 102.644531 103.53125 108.671875 107.53125 106.605469 Z M 107.53125 106.605469 " fill-opacity="1" fill-rule="nonzero"/><g fill="#000000" fill-opacity="1"><g transform="translate(225.124939, 302.99119)"><g><path d="M 0.828125 -14.875 C 0.828125 -19.164062 2.289062 -22.796875 5.21875 -25.765625 C 8.144531 -28.742188 11.671875 -30.234375 15.796875 -30.234375 C 19.953125 -30.234375 23.484375 -28.75 26.390625 -25.78125 C 29.296875 -22.820312 30.75 -19.1875 30.75 -14.875 C 30.75 -10.53125 29.316406 -6.875 26.453125 -3.90625 C 23.597656 -0.9375 20.046875 0.546875 15.796875 0.546875 C 11.453125 0.546875 7.867188 -0.921875 5.046875 -3.859375 C 2.234375 -6.804688 0.828125 -10.476562 0.828125 -14.875 Z M 8.140625 -14.875 C 8.140625 -13.3125 8.378906 -11.882812 8.859375 -10.59375 C 9.335938 -9.3125 10.175781 -8.226562 11.375 -7.34375 C 12.570312 -6.457031 14.046875 -6.015625 15.796875 -6.015625 C 18.316406 -6.015625 20.21875 -6.878906 21.5 -8.609375 C 22.789062 -10.335938 23.4375 -12.425781 23.4375 -14.875 C 23.4375 -17.289062 22.78125 -19.367188 21.46875 -21.109375 C 20.164062 -22.847656 18.273438 -23.71875 15.796875 -23.71875 C 13.347656 -23.71875 11.457031 -22.847656 10.125 -21.109375 C 8.800781 -19.367188 8.140625 -17.289062 8.140625 -14.875 Z M 8.140625 -14.875 "/></g></g></g><g fill="#000000" fill-opacity="1"><g transform="translate(254.886672, 302.99119)"><g><path d="M 2.15625 0 L 2.15625 -30.953125 L 8.53125 -30.953125 L 8.53125 0 Z M 2.15625 0 "/></g></g></g><g fill="#000000" fill-opacity="1"><g transform="translate(263.775208, 302.99119)"><g><path d="M 2.765625 -28.75 C 3.515625 -29.5 4.40625 -29.875 5.4375 -29.875 C 6.46875 -29.875 7.351562 -29.5 8.09375 -28.75 C 8.84375 -28.007812 9.21875 -27.125 9.21875 -26.09375 C 9.21875 -25.0625 8.84375 -24.171875 8.09375 -23.421875 C 7.351562 -22.679688 6.46875 -22.3125 5.4375 -22.3125 C 4.40625 -22.3125 3.515625 -22.679688 2.765625 -23.421875 C 2.023438 -24.171875 1.65625 -25.0625 1.65625 -26.09375 C 1.65625 -27.125 2.023438 -28.007812 2.765625 -28.75 Z M 2.15625 -18.46875 L 2.15625 0 L 8.53125 0 L 8.53125 -18.46875 Z M 2.15625 -18.46875 "/></g></g></g><g fill="#000000" fill-opacity="1"><g transform="translate(272.84368, 302.99119)"><g><path d="M 6.84375 -18.46875 L 11.34375 -8.421875 L 15.84375 -18.46875 L 23.40625 -18.46875 L 13.5 0 L 9.1875 0 L -0.71875 -18.46875 Z M 6.84375 -18.46875 "/></g></g></g><g fill="#000000" fill-opacity="1"><g transform="translate(293.716307, 302.99119)"><g><path d="M 20.84375 -8.359375 L 7.453125 -8.359375 C 7.453125 -7.054688 7.867188 -6.09375 8.703125 -5.46875 C 9.546875 -4.84375 10.460938 -4.53125 11.453125 -4.53125 C 12.484375 -4.53125 13.296875 -4.664062 13.890625 -4.9375 C 14.492188 -5.21875 15.179688 -5.769531 15.953125 -6.59375 L 20.5625 -4.28125 C 18.632812 -1.0625 15.441406 0.546875 10.984375 0.546875 C 8.191406 0.546875 5.800781 -0.40625 3.8125 -2.3125 C 1.820312 -4.226562 0.828125 -6.53125 0.828125 -9.21875 C 0.828125 -11.90625 1.820312 -14.207031 3.8125 -16.125 C 5.800781 -18.050781 8.191406 -19.015625 10.984375 -19.015625 C 13.910156 -19.015625 16.289062 -18.164062 18.125 -16.46875 C 19.957031 -14.78125 20.875 -12.363281 20.875 -9.21875 C 20.875 -8.78125 20.863281 -8.492188 20.84375 -8.359375 Z M 7.625 -11.875 L 14.65625 -11.875 C 14.507812 -12.832031 14.128906 -13.570312 13.515625 -14.09375 C 12.898438 -14.613281 12.113281 -14.875 11.15625 -14.875 C 10.101562 -14.875 9.265625 -14.597656 8.640625 -14.046875 C 8.015625 -13.492188 7.675781 -12.769531 7.625 -11.875 Z M 7.625 -11.875 "/></g></g></g></svg>