<svg xmlns="http://www.w3.org/2000/svg" xmlns:xlink="http://www.w3.org/1999/xlink" width="500" zoomAndPan="magnify" viewBox="0 0 375 374.999991" height="500" preserveAspectRatio="xMidYMid meet" version="1.0"><defs><g/><clipPath id="2f1b555cce"><path d="M 51 55.539062 L 320 55.539062 L 320 284 L 51 284 Z M 51 55.539062 " clip-rule="nonzero"/></clipPath><clipPath id="31667fa335"><path d="M 155 215 L 186 215 L 186 319.539062 L 155 319.539062 Z M 155 215 " clip-rule="nonzero"/></clipPath><clipPath id="de0bf67d04"><path d="M 210 215 L 241 215 L 241 319.539062 L 210 319.539062 Z M 210 215 " clip-rule="nonzero"/></clipPath><clipPath id="7b41f7eb64"><path d="M 12.042969 65 L 86 65 L 86 171 L 12.042969 171 Z M 12.042969 65 " clip-rule="nonzero"/></clipPath></defs><path fill="#ffffff" d="M 144.097656 183.261719 C 144.492188 183.113281 144.9375 182.914062 145.285156 182.71875 C 147.804688 181.730469 150.375 180.839844 152.996094 180.097656 C 153.191406 180.046875 153.390625 180 153.585938 179.949219 C 153.585938 179.949219 153.636719 179.949219 153.636719 179.949219 C 153.6875 179.949219 153.6875 179.949219 153.734375 179.902344 C 153.785156 179.902344 153.785156 179.902344 153.835938 179.902344 C 157.046875 179.011719 160.308594 178.367188 163.570312 177.875 C 170.542969 177.035156 177.609375 177.035156 184.578125 177.875 C 189.324219 178.566406 194.019531 179.703125 198.566406 181.234375 C 200.394531 181.828125 202.617188 181.433594 204.300781 180.492188 C 205.980469 179.503906 207.214844 177.921875 207.710938 176.046875 C 208.253906 174.117188 207.957031 172.042969 206.96875 170.3125 C 205.980469 168.582031 204.398438 167.542969 202.519531 166.902344 C 198.417969 165.515625 194.214844 164.480469 189.964844 163.785156 C 184.875 162.945312 179.734375 162.453125 174.59375 162.402344 C 169.898438 162.351562 165.300781 162.796875 160.65625 163.441406 C 157.195312 163.933594 153.734375 164.578125 150.324219 165.515625 C 150.277344 165.515625 150.226562 165.566406 150.128906 165.566406 C 149.929688 165.617188 149.683594 165.664062 149.484375 165.765625 C 149.4375 165.765625 149.386719 165.8125 149.289062 165.8125 C 149.289062 165.8125 149.289062 165.8125 149.238281 165.8125 C 149.1875 165.8125 149.140625 165.8125 149.140625 165.863281 C 149.039062 165.863281 148.992188 165.910156 148.890625 165.910156 C 148.84375 165.910156 148.792969 165.910156 148.792969 165.960938 C 148.742188 165.960938 148.644531 166.011719 148.59375 166.011719 C 145.679688 166.851562 142.863281 167.9375 140.042969 169.074219 C 139.402344 169.222656 138.808594 169.519531 138.214844 169.816406 C 138.117188 169.867188 138.019531 169.914062 137.917969 169.964844 C 137.574219 170.113281 137.226562 170.261719 136.882812 170.410156 C 136.386719 170.804688 135.894531 171.199219 135.398438 171.546875 C 134.460938 172.484375 133.867188 173.574219 133.472656 174.808594 C 132.925781 176.738281 133.222656 178.8125 134.210938 180.542969 C 135.199219 182.222656 136.78125 183.460938 138.660156 183.953125 C 139.304688 184.050781 139.996094 184.152344 140.636719 184.199219 C 141.824219 184.152344 143.011719 183.855469 144.097656 183.261719 Z M 145.679688 182.570312 C 145.730469 182.570312 145.777344 182.519531 145.777344 182.519531 C 145.777344 182.519531 145.730469 182.519531 145.679688 182.570312 Z M 145.679688 182.570312 " fill-opacity="1" fill-rule="nonzero"/><path fill="#ffffff" d="M 213.046875 188.898438 C 213.046875 187.464844 213.148438 186.03125 213.296875 184.597656 C 213.839844 181.332031 214.679688 178.171875 215.914062 175.15625 C 216.605469 173.621094 217.398438 172.089844 218.238281 170.609375 C 220.265625 167.097656 219.078125 162.5 215.570312 160.476562 C 212.109375 158.449219 207.464844 159.632812 205.4375 163.144531 C 203.3125 166.800781 201.628906 170.707031 200.394531 174.710938 C 199.800781 176.6875 199.355469 178.714844 199.011719 180.742188 C 198.566406 183.460938 198.269531 186.179688 198.21875 188.898438 C 198.171875 192.949219 201.628906 196.3125 205.632812 196.3125 C 209.6875 196.3125 212.949219 192.949219 213.046875 188.898438 Z M 213.046875 188.898438 " fill-opacity="1" fill-rule="nonzero"/><g clip-path="url(#2f1b555cce)"><path fill="#e6c999" d="M 319.5625 169.71875 C 319.5625 171.585938 319.507812 173.453125 319.402344 175.320312 C 319.292969 177.1875 319.132812 179.050781 318.917969 180.910156 C 318.703125 182.769531 318.433594 184.625 318.109375 186.472656 C 317.789062 188.320312 317.414062 190.160156 316.984375 191.992188 C 316.554688 193.828125 316.074219 195.648438 315.542969 197.460938 C 315.007812 199.273438 314.421875 201.074219 313.785156 202.863281 C 313.148438 204.652344 312.457031 206.425781 311.71875 208.183594 C 310.980469 209.945312 310.1875 211.6875 309.347656 213.414062 C 308.507812 215.140625 307.617188 216.847656 306.679688 218.535156 C 305.738281 220.226562 304.753906 221.894531 303.71875 223.542969 C 302.683594 225.191406 301.601562 226.816406 300.472656 228.417969 C 299.34375 230.023438 298.167969 231.601562 296.945312 233.152344 C 295.726562 234.707031 294.460938 236.234375 293.15625 237.734375 C 291.847656 239.238281 290.496094 240.710938 289.101562 242.152344 C 287.710938 243.597656 286.273438 245.011719 284.800781 246.398438 C 283.324219 247.78125 281.8125 249.136719 280.257812 250.457031 C 278.707031 251.777344 277.117188 253.066406 275.488281 254.320312 C 273.859375 255.574219 272.199219 256.796875 270.5 257.980469 C 268.804688 259.167969 267.070312 260.316406 265.308594 261.429688 C 263.542969 262.542969 261.75 263.617188 259.921875 264.65625 C 258.097656 265.695312 256.242188 266.695312 254.359375 267.652344 C 252.476562 268.613281 250.566406 269.535156 248.628906 270.417969 C 246.691406 271.296875 244.730469 272.136719 242.746094 272.9375 C 240.757812 273.734375 238.75 274.492188 236.722656 275.207031 C 234.695312 275.921875 232.644531 276.59375 230.578125 277.222656 C 228.511719 277.855469 226.425781 278.441406 224.324219 278.980469 C 222.222656 279.523438 220.105469 280.023438 217.976562 280.476562 C 215.84375 280.929688 213.703125 281.339844 211.550781 281.703125 C 209.394531 282.070312 207.230469 282.390625 205.058594 282.664062 C 202.886719 282.9375 200.707031 283.164062 198.523438 283.347656 C 196.335938 283.53125 194.148438 283.667969 191.953125 283.761719 C 189.761719 283.851562 187.566406 283.898438 185.371094 283.898438 C 183.171875 283.898438 180.976562 283.851562 178.785156 283.761719 C 176.589844 283.667969 174.402344 283.53125 172.214844 283.347656 C 170.03125 283.164062 167.851562 282.9375 165.679688 282.664062 C 163.507812 282.390625 161.34375 282.070312 159.1875 281.703125 C 157.035156 281.339844 154.894531 280.929688 152.761719 280.476562 C 150.632812 280.023438 148.515625 279.523438 146.414062 278.980469 C 144.3125 278.441406 142.226562 277.855469 140.160156 277.222656 C 138.09375 276.59375 136.042969 275.921875 134.015625 275.207031 C 131.988281 274.492188 129.980469 273.734375 127.992188 272.9375 C 126.007812 272.136719 124.046875 271.296875 122.109375 270.417969 C 120.171875 269.535156 118.261719 268.613281 116.378906 267.652344 C 114.496094 266.695312 112.640625 265.695312 110.816406 264.65625 C 108.988281 263.617188 107.195312 262.542969 105.429688 261.429688 C 103.667969 260.316406 101.933594 259.167969 100.238281 257.980469 C 98.539062 256.796875 96.878906 255.574219 95.25 254.320312 C 93.621094 253.066406 92.03125 251.777344 90.480469 250.457031 C 88.925781 249.136719 87.414062 247.78125 85.9375 246.398438 C 84.464844 245.011719 83.027344 243.597656 81.636719 242.152344 C 80.242188 240.710938 78.890625 239.238281 77.582031 237.734375 C 76.277344 236.234375 75.011719 234.707031 73.792969 233.152344 C 72.570312 231.601562 71.394531 230.023438 70.265625 228.417969 C 69.136719 226.816406 68.054688 225.191406 67.019531 223.542969 C 65.984375 221.894531 65 220.226562 64.058594 218.535156 C 63.121094 216.847656 62.230469 215.140625 61.390625 213.414062 C 60.550781 211.6875 59.757812 209.945312 59.019531 208.183594 C 58.28125 206.425781 57.589844 204.652344 56.953125 202.863281 C 56.316406 201.074219 55.730469 199.273438 55.195312 197.460938 C 54.664062 195.648438 54.183594 193.828125 53.753906 191.992188 C 53.324219 190.160156 52.949219 188.320312 52.628906 186.472656 C 52.304688 184.625 52.035156 182.769531 51.820312 180.910156 C 51.605469 179.050781 51.445312 177.1875 51.335938 175.320312 C 51.230469 173.453125 51.175781 171.585938 51.175781 169.71875 C 51.175781 167.847656 51.230469 165.980469 51.335938 164.117188 C 51.445312 162.25 51.605469 160.386719 51.820312 158.527344 C 52.035156 156.667969 52.304688 154.8125 52.628906 152.964844 C 52.949219 151.117188 53.324219 149.273438 53.753906 147.441406 C 54.183594 145.609375 54.664062 143.785156 55.195312 141.972656 C 55.730469 140.160156 56.316406 138.363281 56.953125 136.574219 C 57.589844 134.785156 58.28125 133.011719 59.019531 131.25 C 59.757812 129.492188 60.550781 127.75 61.390625 126.023438 C 62.230469 124.296875 63.121094 122.589844 64.058594 120.898438 C 65 119.210938 65.984375 117.542969 67.019531 115.894531 C 68.054688 114.246094 69.136719 112.621094 70.265625 111.015625 C 71.394531 109.414062 72.570312 107.835938 73.792969 106.28125 C 75.011719 104.730469 76.277344 103.203125 77.582031 101.699219 C 78.890625 100.199219 80.242188 98.726562 81.636719 97.28125 C 83.027344 95.839844 84.464844 94.421875 85.9375 93.039062 C 87.414062 91.65625 88.925781 90.300781 90.480469 88.980469 C 92.03125 87.660156 93.621094 86.371094 95.25 85.117188 C 96.878906 83.859375 98.539062 82.640625 100.238281 81.457031 C 101.933594 80.269531 103.667969 79.121094 105.429688 78.007812 C 107.195312 76.894531 108.988281 75.820312 110.816406 74.78125 C 112.640625 73.742188 114.496094 72.742188 116.378906 71.78125 C 118.261719 70.820312 120.171875 69.902344 122.109375 69.019531 C 124.046875 68.140625 126.007812 67.296875 127.992188 66.5 C 129.980469 65.699219 131.988281 64.945312 134.015625 64.230469 C 136.042969 63.511719 138.09375 62.839844 140.160156 62.210938 C 142.226562 61.582031 144.3125 60.996094 146.414062 60.453125 C 148.515625 59.910156 150.632812 59.414062 152.761719 58.960938 C 154.894531 58.503906 157.035156 58.097656 159.1875 57.730469 C 161.34375 57.367188 163.507812 57.046875 165.679688 56.773438 C 167.851562 56.5 170.03125 56.269531 172.214844 56.085938 C 174.402344 55.902344 176.589844 55.765625 178.785156 55.675781 C 180.976562 55.582031 183.171875 55.539062 185.371094 55.539062 C 187.566406 55.539062 189.761719 55.582031 191.953125 55.675781 C 194.148438 55.765625 196.335938 55.902344 198.523438 56.085938 C 200.707031 56.269531 202.886719 56.5 205.058594 56.773438 C 207.230469 57.046875 209.394531 57.367188 211.550781 57.730469 C 213.703125 58.097656 215.84375 58.503906 217.976562 58.960938 C 220.105469 59.414062 222.222656 59.910156 224.324219 60.453125 C 226.425781 60.996094 228.511719 61.582031 230.578125 62.210938 C 232.644531 62.839844 234.695312 63.511719 236.722656 64.230469 C 238.75 64.945312 240.757812 65.699219 242.746094 66.5 C 244.730469 67.296875 246.691406 68.140625 248.628906 69.019531 C 250.566406 69.902344 252.476562 70.820312 254.359375 71.78125 C 256.242188 72.742188 258.097656 73.742188 259.921875 74.78125 C 261.75 75.820312 263.542969 76.894531 265.308594 78.007812 C 267.074219 79.121094 268.804688 80.269531 270.5 81.457031 C 272.199219 82.640625 273.859375 83.859375 275.488281 85.117188 C 277.117188 86.371094 278.707031 87.660156 280.257812 88.980469 C 281.8125 90.300781 283.324219 91.65625 284.800781 93.039062 C 286.273438 94.421875 287.710938 95.839844 289.101562 97.28125 C 290.496094 98.726562 291.847656 100.199219 293.15625 101.699219 C 294.460938 103.203125 295.726562 104.730469 296.945312 106.28125 C 298.167969 107.835938 299.34375 109.414062 300.472656 111.015625 C 301.601562 112.621094 302.683594 114.246094 303.71875 115.894531 C 304.753906 117.542969 305.738281 119.210938 306.679688 120.898438 C 307.617188 122.589844 308.507812 124.296875 309.347656 126.023438 C 310.1875 127.75 310.980469 129.492188 311.71875 131.25 C 312.457031 133.011719 313.148438 134.785156 313.785156 136.574219 C 314.421875 138.363281 315.007812 140.160156 315.542969 141.972656 C 316.074219 143.785156 316.554688 145.609375 316.984375 147.441406 C 317.414062 149.273438 317.789062 151.117188 318.109375 152.964844 C 318.433594 154.8125 318.703125 156.667969 318.917969 158.527344 C 319.132812 160.386719 319.292969 162.25 319.402344 164.117188 C 319.507812 165.980469 319.5625 167.847656 319.5625 169.71875 Z M 319.5625 169.71875 " fill-opacity="1" fill-rule="nonzero"/></g><path fill="#000000" d="M 181.957031 141.742188 C 180.523438 143.175781 179.832031 145.003906 179.785156 146.980469 C 179.734375 149.207031 179.980469 151.378906 180.328125 153.554688 C 180.574219 155.234375 181.070312 156.914062 181.664062 158.496094 C 182.453125 160.523438 183.34375 162.5 184.527344 164.378906 C 185.664062 166.207031 187.097656 167.9375 188.582031 169.519531 C 190.113281 171.101562 191.894531 172.484375 193.671875 173.769531 C 195.550781 175.105469 197.578125 175.996094 199.652344 176.835938 C 201.285156 177.527344 202.914062 178.023438 204.597656 178.320312 C 206.871094 178.761719 209.144531 179.011719 211.464844 178.960938 C 213.59375 178.910156 215.71875 178.617188 217.792969 178.171875 C 219.867188 177.773438 221.796875 176.933594 223.722656 176.144531 C 227.382812 174.613281 230.695312 172.191406 233.410156 169.324219 C 234.894531 167.789062 236.179688 166.058594 237.316406 164.28125 C 238.453125 162.5 239.246094 160.574219 240.085938 158.644531 C 240.679688 157.261719 241.074219 155.828125 241.371094 154.34375 C 241.765625 152.515625 241.960938 150.636719 242.0625 148.761719 C 242.0625 148.710938 242.0625 148.613281 242.0625 148.5625 C 242.0625 148.511719 242.0625 148.511719 242.0625 148.464844 C 242.0625 148.464844 242.0625 148.464844 242.0625 148.414062 C 242.0625 148.363281 242.0625 148.363281 242.0625 148.316406 C 242.0625 148.167969 242.0625 147.96875 242.0625 147.820312 C 242.0625 147.820312 242.0625 147.820312 242.0625 147.773438 C 242.0625 143.71875 238.699219 140.355469 234.648438 140.355469 C 230.59375 140.355469 227.28125 143.71875 227.234375 147.773438 C 227.234375 148.019531 227.234375 148.265625 227.234375 148.464844 C 227.234375 148.957031 227.183594 149.453125 227.136719 149.945312 C 226.886719 151.378906 226.492188 152.765625 225.996094 154.097656 C 225.40625 155.382812 224.664062 156.570312 223.871094 157.757812 C 222.984375 158.84375 221.996094 159.832031 220.90625 160.722656 C 219.722656 161.5625 218.535156 162.253906 217.25 162.847656 C 215.914062 163.339844 214.53125 163.738281 213.097656 163.984375 C 211.613281 164.132812 210.179688 164.132812 208.699219 163.984375 C 207.265625 163.738281 205.882812 163.339844 204.496094 162.847656 C 203.210938 162.253906 202.027344 161.511719 200.839844 160.722656 C 199.753906 159.832031 198.8125 158.84375 197.875 157.757812 C 197.035156 156.570312 196.34375 155.382812 195.75 154.097656 C 195.253906 152.765625 194.859375 151.378906 194.613281 149.945312 C 194.511719 148.957031 194.511719 147.917969 194.511719 146.882812 C 194.613281 142.828125 191.054688 139.46875 187.097656 139.46875 C 185.269531 139.566406 183.34375 140.355469 181.957031 141.742188 Z M 181.957031 141.742188 " fill-opacity="1" fill-rule="nonzero"/><g clip-path="url(#31667fa335)"><path fill="#e6c999" d="M 170.6875 215.835938 C 162.582031 215.835938 155.863281 222.558594 155.863281 230.664062 C 155.863281 242.328125 155.863281 293.042969 155.863281 304.707031 C 155.863281 312.816406 162.582031 319.539062 170.6875 319.539062 C 178.796875 319.539062 185.515625 312.816406 185.515625 304.707031 C 185.515625 293.042969 185.515625 242.328125 185.515625 230.664062 C 185.515625 222.558594 178.796875 215.835938 170.6875 215.835938 Z M 170.6875 215.835938 " fill-opacity="1" fill-rule="nonzero"/></g><g clip-path="url(#de0bf67d04)"><path fill="#e6c999" d="M 225.554688 215.835938 C 217.445312 215.835938 210.726562 222.558594 210.726562 230.664062 C 210.726562 242.328125 210.726562 293.042969 210.726562 304.707031 C 210.726562 312.816406 217.445312 319.539062 225.554688 319.539062 C 233.660156 319.539062 240.382812 312.816406 240.382812 304.707031 C 240.382812 293.042969 240.382812 242.328125 240.382812 230.664062 C 240.382812 222.558594 233.660156 215.835938 225.554688 215.835938 Z M 225.554688 215.835938 " fill-opacity="1" fill-rule="nonzero"/></g><path fill="#e6c999" d="M 307.898438 170.015625 C 312.246094 168.234375 316.5 166.40625 320.550781 164.035156 C 324.753906 161.613281 328.609375 158.644531 332.363281 155.582031 C 335.328125 153.207031 338.046875 150.539062 340.617188 147.722656 C 343.882812 144.113281 346.847656 140.210938 349.515625 136.15625 C 351.589844 132.941406 353.421875 129.53125 354.953125 126.023438 C 356.980469 121.476562 358.808594 116.878906 360.042969 112.035156 C 361.328125 107.140625 362.019531 102.097656 362.515625 97.058594 C 362.910156 93.25 362.910156 89.445312 362.664062 85.640625 C 362.464844 82.476562 361.972656 79.261719 361.527344 76.148438 C 361.03125 74.960938 360.539062 73.777344 360.042969 72.589844 C 358.707031 70.367188 356.929688 68.585938 354.707031 67.25 C 351.292969 65.226562 347.09375 64.679688 343.289062 65.769531 C 339.582031 66.808594 336.367188 69.277344 334.441406 72.589844 C 333.945312 73.777344 333.453125 74.960938 332.957031 76.148438 C 332.316406 78.621094 332.265625 81.09375 332.859375 83.613281 C 333.304688 88.359375 333.304688 93.152344 332.808594 97.898438 C 332.019531 102.742188 330.734375 107.4375 328.953125 112.035156 C 326.976562 116.382812 324.554688 120.535156 321.6875 124.441406 C 318.671875 128.148438 315.261719 131.507812 311.605469 134.523438 C 307.453125 137.539062 303.003906 140.109375 298.308594 142.1875 C 297.714844 142.433594 297.125 142.679688 296.53125 142.925781 C 294.304688 144.261719 292.527344 146.042969 291.191406 148.265625 C 289.164062 151.675781 288.621094 155.878906 289.710938 159.683594 C 290.746094 163.390625 293.21875 166.605469 296.53125 168.53125 C 297.714844 169.027344 298.902344 169.519531 300.089844 170.015625 C 301.421875 170.359375 302.707031 170.558594 304.042969 170.558594 C 305.378906 170.558594 306.613281 170.410156 307.898438 170.015625 Z M 333.054688 84.996094 C 333.054688 84.898438 333.054688 84.847656 333.007812 84.75 C 333.054688 84.847656 333.054688 84.898438 333.054688 84.996094 Z M 333.054688 84.996094 " fill-opacity="1" fill-rule="nonzero"/><g clip-path="url(#7b41f7eb64)"><path fill="#e6c999" d="M 67.089844 170.015625 C 68.425781 170.359375 69.710938 170.558594 71.046875 170.558594 C 72.378906 170.558594 73.664062 170.359375 75 170.015625 C 76.183594 169.519531 77.371094 169.027344 78.558594 168.53125 C 81.871094 166.605469 84.339844 163.390625 85.378906 159.683594 C 86.417969 155.878906 85.871094 151.675781 83.894531 148.265625 C 82.5625 146.042969 80.78125 144.261719 78.558594 142.925781 C 77.964844 142.679688 77.371094 142.433594 76.777344 142.1875 C 72.082031 140.109375 67.632812 137.539062 63.484375 134.523438 C 59.777344 131.507812 56.414062 128.097656 53.398438 124.441406 C 50.582031 120.535156 48.160156 116.433594 46.132812 112.035156 C 44.355469 107.488281 43.070312 102.742188 42.277344 97.898438 C 41.785156 93.152344 41.785156 88.359375 42.230469 83.613281 C 42.824219 81.140625 42.773438 78.671875 42.128906 76.148438 C 41.636719 74.960938 41.140625 73.777344 40.648438 72.589844 C 38.71875 69.277344 35.507812 66.808594 31.800781 65.769531 C 27.996094 64.730469 23.792969 65.273438 20.382812 67.25 C 18.160156 68.585938 16.378906 70.367188 15.042969 72.589844 C 14.550781 73.777344 14.054688 74.960938 13.5625 76.148438 C 13.117188 79.3125 12.621094 82.476562 12.425781 85.640625 C 12.175781 89.445312 12.226562 93.300781 12.574219 97.058594 C 13.066406 102.097656 13.757812 107.140625 15.042969 112.035156 C 16.328125 116.878906 18.160156 121.425781 20.136719 126.023438 C 21.667969 129.53125 23.496094 132.941406 25.574219 136.15625 C 28.242188 140.210938 31.207031 144.113281 34.46875 147.722656 C 36.988281 150.539062 39.757812 153.207031 42.722656 155.582031 C 46.480469 158.597656 50.335938 161.5625 54.535156 164.035156 C 58.492188 166.40625 62.742188 168.285156 67.089844 170.015625 Z M 41.933594 84.996094 C 41.933594 84.898438 41.933594 84.847656 41.980469 84.75 C 41.933594 84.847656 41.933594 84.898438 41.933594 84.996094 Z M 41.933594 84.996094 " fill-opacity="1" fill-rule="nonzero"/></g><path fill="#000000" d="M 168.121094 148.117188 C 167.476562 144.113281 163.621094 141.296875 159.617188 141.9375 C 155.613281 142.582031 152.847656 146.488281 153.441406 150.441406 C 154.082031 154.445312 157.9375 157.261719 161.941406 156.621094 C 165.945312 155.976562 168.761719 152.121094 168.121094 148.117188 Z M 168.121094 148.117188 " fill-opacity="1" fill-rule="nonzero"/><path fill="#000000" d="M 269.839844 148.167969 C 269.195312 144.164062 265.339844 141.347656 261.339844 141.988281 C 257.335938 142.632812 254.566406 146.535156 255.160156 150.492188 C 255.800781 154.492188 259.65625 157.3125 263.660156 156.667969 C 267.714844 156.027344 270.480469 152.171875 269.839844 148.167969 Z M 269.839844 148.167969 " fill-opacity="1" fill-rule="nonzero"/><g fill="#000000" fill-opacity="1"><g transform="translate(29.097081, 307.462715)"><g><path d="M 2.15625 -29.703125 L 12.78125 -29.703125 C 15.632812 -29.703125 17.960938 -28.9375 19.765625 -27.40625 C 21.566406 -25.882812 22.46875 -23.707031 22.46875 -20.875 C 22.46875 -18.695312 21.921875 -16.867188 20.828125 -15.390625 C 19.734375 -13.910156 18.25 -12.875 16.375 -12.28125 L 26.609375 0 L 18 0 L 8.921875 -11.734375 L 8.921875 0 L 2.15625 0 Z M 8.921875 -16.53125 L 9.71875 -16.53125 C 10.34375 -16.53125 10.867188 -16.539062 11.296875 -16.5625 C 11.734375 -16.582031 12.226562 -16.664062 12.78125 -16.8125 C 13.332031 -16.957031 13.773438 -17.160156 14.109375 -17.421875 C 14.441406 -17.679688 14.726562 -18.0625 14.96875 -18.5625 C 15.21875 -19.070312 15.34375 -19.6875 15.34375 -20.40625 C 15.34375 -21.125 15.21875 -21.734375 14.96875 -22.234375 C 14.726562 -22.742188 14.441406 -23.128906 14.109375 -23.390625 C 13.773438 -23.660156 13.332031 -23.867188 12.78125 -24.015625 C 12.226562 -24.160156 11.734375 -24.242188 11.296875 -24.265625 C 10.867188 -24.285156 10.34375 -24.296875 9.71875 -24.296875 L 8.921875 -24.296875 Z M 8.921875 -16.53125 "/></g></g></g><g fill="#000000" fill-opacity="1"><g transform="translate(53.064695, 307.462715)"><g><path d="M 20.84375 -8.359375 L 7.453125 -8.359375 C 7.453125 -7.054688 7.867188 -6.09375 8.703125 -5.46875 C 9.546875 -4.84375 10.460938 -4.53125 11.453125 -4.53125 C 12.484375 -4.53125 13.296875 -4.664062 13.890625 -4.9375 C 14.492188 -5.21875 15.179688 -5.769531 15.953125 -6.59375 L 20.5625 -4.28125 C 18.632812 -1.0625 15.441406 0.546875 10.984375 0.546875 C 8.191406 0.546875 5.800781 -0.40625 3.8125 -2.3125 C 1.820312 -4.226562 0.828125 -6.53125 0.828125 -9.21875 C 0.828125 -11.90625 1.820312 -14.207031 3.8125 -16.125 C 5.800781 -18.050781 8.191406 -19.015625 10.984375 -19.015625 C 13.910156 -19.015625 16.289062 -18.164062 18.125 -16.46875 C 19.957031 -14.78125 20.875 -12.363281 20.875 -9.21875 C 20.875 -8.78125 20.863281 -8.492188 20.84375 -8.359375 Z M 7.625 -11.875 L 14.65625 -11.875 C 14.507812 -12.832031 14.128906 -13.570312 13.515625 -14.09375 C 12.898438 -14.613281 12.113281 -14.875 11.15625 -14.875 C 10.101562 -14.875 9.265625 -14.597656 8.640625 -14.046875 C 8.015625 -13.492188 7.675781 -12.769531 7.625 -11.875 Z M 7.625 -11.875 "/></g></g></g><g fill="#000000" fill-opacity="1"><g transform="translate(72.96564, 307.462715)"><g><path d="M 2.15625 0 L 2.15625 -18.46875 L 8.53125 -18.46875 L 8.53125 -16.53125 L 8.609375 -16.53125 C 10.265625 -18.1875 12.023438 -19.015625 13.890625 -19.015625 C 15.234375 -19.015625 16.492188 -18.738281 17.671875 -18.1875 C 18.847656 -17.632812 19.738281 -16.78125 20.34375 -15.625 C 22.207031 -17.882812 24.242188 -19.015625 26.453125 -19.015625 C 28.421875 -19.015625 30.113281 -18.460938 31.53125 -17.359375 C 32.945312 -16.253906 33.65625 -14.523438 33.65625 -12.171875 L 33.65625 0 L 27.28125 0 L 27.28125 -10.4375 C 27.28125 -11.425781 27.007812 -12.25 26.46875 -12.90625 C 25.9375 -13.5625 25.128906 -13.890625 24.046875 -13.890625 C 23.109375 -13.890625 22.394531 -13.609375 21.90625 -13.046875 C 21.414062 -12.484375 21.144531 -11.804688 21.09375 -11.015625 L 21.09375 0 L 14.71875 0 L 14.71875 -10.4375 C 14.71875 -11.425781 14.445312 -12.25 13.90625 -12.90625 C 13.375 -13.5625 12.566406 -13.890625 11.484375 -13.890625 C 10.503906 -13.890625 9.765625 -13.582031 9.265625 -12.96875 C 8.773438 -12.363281 8.53125 -11.640625 8.53125 -10.796875 L 8.53125 0 Z M 2.15625 0 "/></g></g></g><g fill="#000000" fill-opacity="1"><g transform="translate(106.614112, 307.462715)"><g><path d="M 16.15625 -18.46875 L 23.515625 -18.46875 L 9 9.359375 L 1.65625 9.359375 L 8.03125 -2.875 L -0.71875 -18.46875 L 6.625 -18.46875 L 11.765625 -9 Z M 16.15625 -18.46875 "/></g></g></g></svg>